<svg width="891" height="720" viewBox="0 0 891 720" fill="none" xmlns="http://www.w3.org/2000/svg">
<g filter="url(#filter0_d)">
<rect x="60" y="60" width="750.399" height="579.164" fill="#F9F9FA"/>
</g>
<rect x="-1" y="1" width="648" height="327" rx="5" transform="matrix(-1 0 0 1 758.397 140)" fill="#E2E9FB" stroke="#175CFF" stroke-width="2"/>
<path fill-rule="evenodd" clip-rule="evenodd" d="M544.897 529.507L550.128 534.621C550.691 535.171 551.553 535.116 552.053 534.497C552.515 533.925 552.507 533.073 552.061 532.513L551.94 532.379L545.803 526.379C545.33 525.916 544.636 525.877 544.126 526.263L543.991 526.379L537.855 532.379C537.292 532.929 537.242 533.877 537.742 534.497C538.204 535.068 538.974 535.16 539.532 534.737L539.667 534.621L544.897 529.507L550.128 534.621L544.897 529.507Z" fill="#57586E"/>
<path d="M529.397 521.5C529.397 520.672 530.069 520 530.897 520H558.897C559.726 520 560.397 520.672 560.397 521.5V521.5C560.397 522.328 559.726 523 558.897 523H530.897C530.069 523 529.397 522.328 529.397 521.5V521.5Z" fill="#57586E"/>
<rect x="543.397" y="549" width="21" height="3" rx="1.5" transform="rotate(-90 543.397 549)" fill="#57586E"/>
<rect x="519.897" y="509.5" width="50" height="49" rx="4" stroke="#57586E"/>
<rect x="110.897" y="509.5" width="50" height="49" rx="4" stroke="#C4302B"/>
<g clip-path="url(#clip0)">
<path fill-rule="evenodd" clip-rule="evenodd" d="M489.647 351.121H555.647C558.132 351.121 560.147 353.14 560.147 355.628C560.147 358.118 558.132 360.136 555.647 360.136H489.647C487.162 360.136 485.147 358.118 485.147 355.628C485.147 353.14 487.162 351.121 489.647 351.121V351.121Z" fill="#B6CAFB"/>
<path fill-rule="evenodd" clip-rule="evenodd" d="M489.647 366.147H555.647C558.132 366.147 560.147 368.165 560.147 370.656C560.147 373.145 558.132 375.164 555.647 375.164H489.647C487.162 375.164 485.147 373.145 485.147 370.656C485.147 368.165 487.162 366.147 489.647 366.147Z" fill="#B6CAFB"/>
<path fill-rule="evenodd" clip-rule="evenodd" d="M491.647 400.461C495.375 400.461 498.397 397.433 498.397 393.699C498.397 389.964 495.375 386.937 491.647 386.937C487.92 386.937 484.897 389.964 484.897 393.699C484.897 397.433 487.92 400.461 491.647 400.461Z" fill="#B6CAFB"/>
<path fill-rule="evenodd" clip-rule="evenodd" d="M511.647 400.461C515.375 400.461 518.397 397.433 518.397 393.699C518.397 389.964 515.375 386.937 511.647 386.937C507.92 386.937 504.897 389.964 504.897 393.699C504.897 397.433 507.92 400.461 511.647 400.461Z" fill="#B6CAFB"/>
</g>
<path fill-rule="evenodd" clip-rule="evenodd" d="M491.046 263.575H642.148C645.959 263.575 649.047 266.67 649.047 270.487C649.047 274.305 645.959 277.399 642.148 277.399H491.046C487.237 277.399 484.147 274.305 484.147 270.487C484.147 266.67 487.237 263.575 491.046 263.575V263.575Z" fill="#4DA2FF" fill-opacity="0.2"/>
<path fill-rule="evenodd" clip-rule="evenodd" d="M491.046 237.465H661.216C665.026 237.465 668.115 240.56 668.115 244.376C668.115 248.193 665.026 251.287 661.216 251.287H491.046C487.237 251.287 484.147 248.193 484.147 244.376C484.147 240.56 487.237 237.465 491.046 237.465V237.465Z" fill="#4DA2FF" fill-opacity="0.2"/>
<path fill-rule="evenodd" clip-rule="evenodd" d="M491.046 211.355H661.216C665.026 211.355 668.115 214.449 668.115 218.267C668.115 222.083 665.026 225.178 661.216 225.178H491.046C487.237 225.178 484.147 222.083 484.147 218.267C484.147 214.449 487.237 211.355 491.046 211.355V211.355Z" fill="#4DA2FF" fill-opacity="0.2"/>
<rect x="485.679" y="294.294" width="67.4548" height="23.0377" rx="4.5" fill="#6894FD"/>
<rect x="272.581" y="248.221" width="148.707" height="164.336" rx="4" fill="#4A7FFE"/>
<path d="M203.397 231C203.397 228.791 205.188 227 207.397 227H268.397C270.607 227 272.397 228.791 272.397 231V391H207.397C205.188 391 203.397 389.209 203.397 387V231Z" fill="#6894FD"/>
<rect x="241.925" y="196" width="148.707" height="164.336" rx="4" fill="#175CFF"/>
<rect x="590.397" y="509" width="170" height="50" rx="4.5" fill="#57586E"/>
<path fill-rule="evenodd" clip-rule="evenodd" d="M128.816 538.925C128.237 539.66 128.298 540.74 128.99 541.432C129.736 542.178 130.931 542.191 131.66 541.461L136.382 536.724L136.405 536.701L136.418 536.715L141.16 541.44L141.323 541.585C142.057 542.164 143.138 542.103 143.83 541.411C144.575 540.665 144.588 539.47 143.859 538.741L139.122 534.019L139.099 533.997L143.84 529.238L143.976 529.086C144.564 528.351 144.507 527.263 143.811 526.568L143.645 526.419C142.897 525.824 141.818 525.861 141.141 526.539L136.395 531.302L131.635 526.561L131.484 526.425C130.749 525.837 129.661 525.894 128.965 526.59L128.817 526.756C128.222 527.504 128.259 528.583 128.936 529.26L133.701 534.007L133.686 534.021L128.961 538.762L128.816 538.925Z" fill="#C4302B"/>
<defs>
<filter id="filter0_d" x="0" y="0" width="890.399" height="719.164" filterUnits="userSpaceOnUse" color-interpolation-filters="sRGB">
<feFlood flood-opacity="0" result="BackgroundImageFix"/>
<feColorMatrix in="SourceAlpha" type="matrix" values="0 0 0 0 0 0 0 0 0 0 0 0 0 0 0 0 0 0 127 0"/>
<feOffset dx="10" dy="10"/>
<feGaussianBlur stdDeviation="35"/>
<feColorMatrix type="matrix" values="0 0 0 0 0 0 0 0 0 0 0 0 0 0 0 0 0 0 0.1 0"/>
<feBlend mode="normal" in2="BackgroundImageFix" result="effect1_dropShadow"/>
<feBlend mode="normal" in="SourceGraphic" in2="effect1_dropShadow" result="shape"/>
</filter>
<clipPath id="clip0">
<rect width="116.513" height="76.6531" fill="white" transform="translate(484.147 351.121)"/>
</clipPath>
</defs>
</svg>
