<svg width="1264" height="1655" viewBox="0 0 1264 1655" fill="none" xmlns="http://www.w3.org/2000/svg">
<g filter="url(#filter0_d)">
<rect x="102" y="98" width="1024" height="1415" rx="60" fill="#F9F9FA"/>
<path fill-rule="evenodd" clip-rule="evenodd" d="M221.845 604.88C231.091 604.88 238.585 597.386 238.585 588.14C238.585 578.895 231.091 571.4 221.845 571.4C212.6 571.4 205.105 578.895 205.105 588.14C205.105 597.386 212.6 604.88 221.845 604.88Z" fill="#E2E2E8"/>
<path fill-rule="evenodd" clip-rule="evenodd" d="M265.243 575.737H344.603C350.766 575.737 355.763 580.735 355.763 586.9C355.763 593.063 350.766 598.06 344.603 598.06H265.243C259.08 598.06 254.083 593.063 254.083 586.9C254.083 580.735 259.08 575.737 265.243 575.737V575.737Z" fill="#E2E2E8"/>
<path fill-rule="evenodd" clip-rule="evenodd" d="M265.243 610.458H562.843C569.006 610.458 574.003 615.455 574.003 621.618C574.003 627.783 569.006 632.78 562.843 632.78H265.243C259.08 632.78 254.083 627.783 254.083 621.618C254.083 615.455 259.08 610.458 265.243 610.458V610.458Z" fill="#E2E2E8"/>
<path fill-rule="evenodd" clip-rule="evenodd" d="M221.845 525.52C231.091 525.52 238.585 518.025 238.585 508.78C238.585 499.535 231.091 492.04 221.845 492.04C212.6 492.04 205.105 499.535 205.105 508.78C205.105 518.025 212.6 525.52 221.845 525.52Z" fill="#E2E2E8"/>
<path fill-rule="evenodd" clip-rule="evenodd" d="M265.243 496.378H344.603C350.766 496.378 355.763 501.375 355.763 507.538C355.763 513.701 350.766 518.698 344.603 518.698H265.243C259.08 518.698 254.083 513.701 254.083 507.538C254.083 501.375 259.08 496.378 265.243 496.378V496.378Z" fill="#E2E2E8"/>
<path fill-rule="evenodd" clip-rule="evenodd" d="M265.243 531.101H562.843C569.006 531.101 574.003 536.093 574.003 542.258C574.003 548.421 569.006 553.418 562.843 553.418H265.243C259.08 553.418 254.083 548.421 254.083 542.258C254.083 536.093 259.08 531.101 265.243 531.101V531.101Z" fill="#E2E2E8"/>
<path fill-rule="evenodd" clip-rule="evenodd" d="M221.845 282.48C231.091 282.48 238.585 274.985 238.585 265.74C238.585 256.495 231.091 249 221.845 249C212.6 249 205.105 256.495 205.105 265.74C205.105 274.985 212.6 282.48 221.845 282.48Z" fill="#E2E2E8"/>
<path fill-rule="evenodd" clip-rule="evenodd" d="M265.243 253.338H329.723C335.886 253.338 340.883 258.333 340.883 264.498C340.883 270.661 335.886 275.658 329.723 275.658H265.243C259.08 275.658 254.083 270.661 254.083 264.498C254.083 258.333 259.08 253.338 265.243 253.338V253.338Z" fill="#E2E2E8"/>
<path fill-rule="evenodd" clip-rule="evenodd" d="M369.407 253.338H433.887C440.05 253.338 445.047 258.333 445.047 264.498C445.047 270.661 440.05 275.658 433.887 275.658H369.407C363.244 275.658 358.247 270.661 358.247 264.498C358.247 258.333 363.244 253.338 369.407 253.338V253.338Z" fill="#E2E2E8"/>
<path fill-rule="evenodd" clip-rule="evenodd" d="M327.245 312.857H349.565C355.728 312.857 360.725 317.855 360.725 324.02C360.725 330.183 355.728 335.18 349.565 335.18H327.245C321.082 335.18 316.085 330.183 316.085 324.02C316.085 317.855 321.082 312.857 327.245 312.857Z" fill="#57586E"/>
<path fill-rule="evenodd" clip-rule="evenodd" d="M213.16 312.857H292.52C298.683 312.857 303.68 317.855 303.68 324.02C303.68 330.183 298.683 335.18 292.52 335.18H213.16C206.997 335.18 202 330.183 202 324.02C202 317.855 206.997 312.857 213.16 312.857V312.857Z" fill="#E2E2E8"/>
<path fill-rule="evenodd" clip-rule="evenodd" d="M213.16 347.577H562.84C569.003 347.577 574 352.574 574 358.737C574 364.902 569.003 369.897 562.84 369.897H213.16C206.997 369.897 202 364.902 202 358.737C202 352.574 206.997 347.577 213.16 347.577V347.577Z" fill="#E2E2E8"/>
<path fill-rule="evenodd" clip-rule="evenodd" d="M213.16 382.298H562.84C569.003 382.298 574 387.293 574 393.458C574 399.621 569.003 404.618 562.84 404.618H213.16C206.997 404.618 202 399.621 202 393.458C202 387.293 206.997 382.298 213.16 382.298V382.298Z" fill="#E2E2E8"/>
<path fill-rule="evenodd" clip-rule="evenodd" d="M213.16 417.02H562.84C569.003 417.02 574 422.017 574 428.18C574 434.34 569.003 439.337 562.84 439.337H213.16C206.997 439.337 202 434.34 202 428.18C202 422.017 206.997 417.02 213.16 417.02V417.02Z" fill="#E2E2E8"/>
<path fill-rule="evenodd" clip-rule="evenodd" d="M213.16 1191H562.84C569.003 1191 574 1196 574 1202.16C574 1208.33 569.003 1213.32 562.84 1213.32H213.16C206.997 1213.32 202 1208.33 202 1202.16C202 1196 206.997 1191 213.16 1191V1191Z" fill="#E2E2E8"/>
<path fill-rule="evenodd" clip-rule="evenodd" d="M213.16 1225.72H562.84C569.003 1225.72 574 1230.71 574 1236.88C574 1243.04 569.003 1248.04 562.84 1248.04H213.16C206.997 1248.04 202 1243.04 202 1236.88C202 1230.71 206.997 1225.72 213.16 1225.72V1225.72Z" fill="#E2E2E8"/>
<path fill-rule="evenodd" clip-rule="evenodd" d="M213.16 1260H562.84C569.003 1260 574 1265 574 1271.16C574 1277.32 569.003 1282.32 562.84 1282.32H213.16C206.997 1282.32 202 1277.32 202 1271.16C202 1265 206.997 1260 213.16 1260V1260Z" fill="#E2E2E8"/>
<path fill-rule="evenodd" clip-rule="evenodd" d="M213.16 1295H562.84C569.003 1295 574 1300 574 1306.16C574 1312.32 569.003 1317.32 562.84 1317.32H213.16C206.997 1317.32 202 1312.32 202 1306.16C202 1300 206.997 1295 213.16 1295V1295Z" fill="#E2E2E8"/>
<rect width="74.6109" height="285.75" rx="4.5" transform="matrix(-1 0 0 1 1025.59 343.25)" fill="#E2E2E8"/>
<rect width="73.148" height="381" rx="4.5" transform="matrix(-1 0 0 1 927.582 248)" fill="#175CFF"/>
<rect width="71.685" height="243.274" rx="4.5" transform="matrix(-1 0 0 1 829.559 385.727)" fill="#E2E2E8"/>
<rect width="74.6109" height="316.642" rx="4.5" transform="matrix(-1 0 0 1 728.613 312.358)" fill="#E2E2E8"/>
<path fill-rule="evenodd" clip-rule="evenodd" d="M660.429 680H667.571C671.121 680 674 682.686 674 685.999C674 689.314 671.121 692 667.571 692H660.429C656.879 692 654 689.314 654 685.999C654 682.686 656.879 680 660.429 680V680Z" fill="#E2E2E8"/>
<path fill-rule="evenodd" clip-rule="evenodd" d="M1012.43 680H1019.57C1023.12 680 1026 682.648 1026 685.913C1026 689.18 1023.12 691.827 1019.57 691.827H1012.43C1008.88 691.827 1006 689.18 1006 685.913C1006 682.648 1008.88 680 1012.43 680V680Z" fill="#E2E2E8"/>
<rect x="791" y="1032" width="98" height="98" rx="3" stroke="#E2E2E8" stroke-width="2" stroke-dasharray="8 8"/>
<rect x="791" y="893" width="98" height="98" rx="3" stroke="#E2E2E8" stroke-width="2" stroke-dasharray="8 8"/>
<rect x="791" y="753" width="98" height="98" rx="3" stroke="#E2E2E8" stroke-width="2" stroke-dasharray="8 8"/>
<rect x="927" y="1032" width="98" height="98" rx="3" stroke="#E2E2E8" stroke-width="2" stroke-dasharray="8 8"/>
<rect x="655" y="1032" width="98" height="98" rx="3" stroke="#E2E2E8" stroke-width="2" stroke-dasharray="8 8"/>
<rect x="655" y="893" width="98" height="98" rx="3" stroke="#E2E2E8" stroke-width="2" stroke-dasharray="8 8"/>
<rect x="927" y="893" width="98" height="98" rx="3" stroke="#E2E2E8" stroke-width="2" stroke-dasharray="8 8"/>
<rect x="655" y="753" width="98" height="98" rx="3" stroke="#E2E2E8" stroke-width="2" stroke-dasharray="8 8"/>
<rect x="927" y="753" width="98" height="98" rx="3" stroke="#E2E2E8" stroke-width="2" stroke-dasharray="8 8"/>
<path d="M687.355 817C686.555 817 686.155 816.664 686.155 815.992V815.8C686.155 815.32 686.555 814.68 687.355 813.88C688.155 813.08 688.731 812.2 689.083 811.24L697.627 789.112C697.915 788.344 697.659 787.384 696.859 786.232C696.059 785.08 695.659 784.376 695.659 784.12V783.928C695.659 783.256 696.059 782.92 696.859 782.92H709.291C710.091 782.92 710.491 783.256 710.491 783.928V784.12C710.491 784.408 710.251 784.808 709.771 785.32C709.323 785.8 708.939 786.36 708.619 787C708.331 787.608 708.331 788.248 708.619 788.92L718.171 811.24C718.555 812.136 719.131 813 719.899 813.832C720.699 814.632 721.099 815.288 721.099 815.8V815.992C721.099 816.664 720.699 817 719.899 817H705.931C705.131 817 704.731 816.664 704.731 815.992V815.8C704.731 815.48 704.875 815.144 705.163 814.792C705.483 814.44 705.803 814.136 706.123 813.88C706.475 813.592 706.747 813.224 706.939 812.776C707.131 812.296 707.131 811.784 706.939 811.24L706.171 809.032H694.939L694.171 811.24C693.979 811.784 693.979 812.296 694.171 812.776C694.363 813.224 694.619 813.592 694.939 813.88C695.291 814.136 695.611 814.44 695.899 814.792C696.219 815.144 696.379 815.48 696.379 815.8V815.992C696.379 816.664 695.979 817 695.179 817H687.355ZM696.379 805H704.827L700.699 792.856L696.379 805Z" fill="#E2E2E8"/>
<path d="M694.098 959H686.189L698.24 924.091H707.751L719.786 959H711.876L703.132 932.068H702.859L694.098 959ZM693.604 945.278H712.286V951.04H693.604V945.278Z" fill="#E2E2E8"/>
<path d="M845.257 953.048H832.681L830.665 959H822.073L834.265 925.304H843.769L855.961 959H847.273L845.257 953.048ZM843.145 946.712L838.969 934.376L834.841 946.712H843.145Z" fill="#E2E2E8"/>
<path d="M969.227 931.961L965.195 923.172H979.469L996.531 958.023H981.227L978.648 952.445H964.914L962.359 958.023H956.43L969.227 931.961ZM976.188 947.078L971.781 937.516L967.398 947.078H976.188Z" fill="#E2E2E8"/>
<path d="M992.508 1093.3C992.7 1093.72 992.796 1094.14 992.796 1094.55C992.796 1095.29 992.492 1095.91 991.884 1096.42C991.308 1096.94 990.636 1097.19 989.868 1097.19C989.356 1097.19 988.876 1097.06 988.428 1096.81C987.98 1096.52 987.628 1096.09 987.372 1095.51L984.492 1089.08H967.596L964.716 1095.51C964.46 1096.09 964.108 1096.52 963.66 1096.81C963.212 1097.06 962.716 1097.19 962.172 1097.19C961.436 1097.19 960.764 1096.94 960.156 1096.42C959.548 1095.91 959.244 1095.29 959.244 1094.55C959.244 1094.14 959.34 1093.72 959.532 1093.3L972.78 1064.84C973.068 1064.2 973.5 1063.72 974.076 1063.4C974.684 1063.05 975.324 1062.87 975.996 1062.87C976.668 1062.87 977.292 1063.05 977.868 1063.4C978.476 1063.72 978.924 1064.2 979.212 1064.84L992.508 1093.3ZM982.38 1084.28L976.044 1070.02L969.708 1084.28H982.38Z" fill="#E2E2E8"/>
<path d="M827.289 1103H835.401L836.745 1094.79H842.457L843.753 1103H851.673L844.425 1064.12H834.633L827.289 1103ZM837.513 1089.66L839.577 1074.49L841.641 1089.66H837.513Z" fill="#E2E2E8"/>
<path d="M687.992 1100L700.625 1065.64H707.539L719.984 1100H713.469L710.07 1090.3H698.047L694.625 1100H687.992ZM699.641 1085.56H708.453C705.641 1076.55 704.195 1071.89 704.117 1071.59L699.641 1085.56Z" fill="#E2E2E8"/>
<path d="M857.469 817H852.477C851.917 817 851.453 816.864 851.085 816.592C850.733 816.304 850.477 815.952 850.317 815.536L847.725 808.456H833.349L830.757 815.536C830.629 815.904 830.373 816.24 829.989 816.544C829.621 816.848 829.165 817 828.621 817H823.605L837.237 782.296H843.837L857.469 817ZM835.005 803.896H846.069L841.845 792.352C841.653 791.84 841.437 791.24 841.197 790.552C840.973 789.848 840.749 789.088 840.525 788.272C840.301 789.088 840.077 789.848 839.853 790.552C839.645 791.256 839.437 791.872 839.229 792.4L835.005 803.896Z" fill="#E2E2E8"/>
<path d="M982.664 806.969H970.336L967.992 814H960.516L973.219 779.875H979.734L992.508 814H985.031L982.664 806.969ZM972.234 801.273H980.766L976.477 788.5L972.234 801.273Z" fill="#E2E2E8"/>
<rect x="205" y="775.46" width="369" height="392.595" rx="4" stroke="#E2E2E8"/>
<rect x="686" y="1211" width="340" height="200" rx="6" fill="#175CFF"/>
<path d="M992.374 1410.24L1020.64 1410.24L1020.64 1441.28L992.374 1410.24Z" fill="#175CFF"/>
<rect x="432" y="1081" width="340" height="100" rx="6" fill="#57586E"/>
<path d="M466.708 1180.24L438.441 1180.24L438.441 1211.28L466.708 1180.24Z" fill="#57586E"/>
<path fill-rule="evenodd" clip-rule="evenodd" d="M332 907C330.895 907 330 907.895 330 909V1024C330 1025.1 330.895 1026 332 1026H447C448.105 1026 449 1025.1 449 1024V909C449 907.895 448.105 907 447 907H332ZM406.025 966.5L382.886 996.316L366.359 976.417L343.22 1006.17H435.775L406.025 966.5Z" fill="#E2E2E8"/>
</g>
<defs>
<filter id="filter0_d" x="0" y="0" width="1264" height="1655" filterUnits="userSpaceOnUse" color-interpolation-filters="sRGB">
<feFlood flood-opacity="0" result="BackgroundImageFix"/>
<feColorMatrix in="SourceAlpha" type="matrix" values="0 0 0 0 0 0 0 0 0 0 0 0 0 0 0 0 0 0 127 0"/>
<feOffset dx="18" dy="22"/>
<feGaussianBlur stdDeviation="60"/>
<feColorMatrix type="matrix" values="0 0 0 0 0 0 0 0 0 0 0 0 0 0 0 0 0 0 0.11 0"/>
<feBlend mode="normal" in2="BackgroundImageFix" result="effect1_dropShadow"/>
<feBlend mode="normal" in="SourceGraphic" in2="effect1_dropShadow" result="shape"/>
</filter>
</defs>
</svg>
