<svg width="1264" height="1655" viewBox="0 0 1264 1655" fill="none" xmlns="http://www.w3.org/2000/svg">
<g filter="url(#filter0_d)">
<rect x="138" y="98" width="1024" height="1415" rx="60" fill="#F9F9FA"/>
<path fill-rule="evenodd" clip-rule="evenodd" d="M1048.43 680H1055.57C1059.12 680 1062 682.648 1062 685.913C1062 689.18 1059.12 691.827 1055.57 691.827H1048.43C1044.88 691.827 1042 689.18 1042 685.913C1042 682.648 1044.88 680 1048.43 680V680Z" fill="#EBF3FA"/>
<path fill-rule="evenodd" clip-rule="evenodd" d="M248.717 218H408.274C414.192 218 418.991 222.785 418.991 228.686C418.991 234.59 414.192 239.372 408.274 239.372H248.717C242.799 239.372 238 234.59 238 228.686C238 222.785 242.799 218 248.717 218V218Z" fill="#C2DAF0"/>
<path fill-rule="evenodd" clip-rule="evenodd" d="M984.593 218H1051.27C1057.19 218 1061.99 222.785 1061.99 228.686C1061.99 234.59 1057.19 239.372 1051.27 239.372H984.593C978.675 239.372 973.876 234.59 973.876 228.686C973.876 222.785 978.675 218 984.593 218V218Z" fill="#175CFF"/>
<path fill-rule="evenodd" clip-rule="evenodd" d="M658.014 685.818C549.855 685.818 461.862 597.931 461.862 489.904C461.862 381.877 549.855 293.994 658.014 293.994C665.058 293.994 670.771 299.698 670.771 306.734C670.771 313.771 665.058 319.475 658.014 319.475C563.925 319.475 487.377 395.93 487.377 489.904C487.377 583.877 563.925 660.333 658.014 660.333C709.248 660.333 757.316 637.636 789.89 598.061C794.367 592.631 802.406 591.842 807.846 596.311C813.29 600.78 814.073 608.812 809.601 614.247C772.162 659.732 716.91 685.818 658.014 685.818Z" fill="#57586E"/>
<path fill-rule="evenodd" clip-rule="evenodd" d="M658.812 650.774C570.438 650.774 498.542 578.965 498.542 490.698C498.542 402.433 570.438 330.625 658.812 330.625C665.856 330.625 671.569 336.329 671.569 343.365C671.569 350.406 665.856 356.11 658.812 356.11C584.508 356.11 524.057 416.487 524.057 490.698C524.057 564.914 584.508 625.291 658.812 625.291C733.116 625.291 793.567 564.914 793.567 490.698C793.567 474.8 790.821 459.243 785.408 444.458C782.986 437.849 786.389 430.533 793.005 428.118C799.623 425.698 806.951 429.096 809.368 435.705C815.814 453.302 819.082 471.805 819.082 490.698C819.082 578.965 747.186 650.774 658.812 650.774V650.774Z" fill="#175CFF"/>
<path fill-rule="evenodd" clip-rule="evenodd" d="M658.02 610.162C591.63 610.162 537.618 556.213 537.618 489.905C537.618 423.596 591.63 369.65 658.02 369.65C665.064 369.65 670.778 375.354 670.778 382.391C670.778 389.432 665.064 395.136 658.02 395.136C605.699 395.136 563.133 437.65 563.133 489.905C563.133 542.162 605.699 584.679 658.02 584.679C710.341 584.679 752.907 542.162 752.907 489.905C752.907 463.885 742.56 439.618 723.772 421.578C718.693 416.7 718.533 408.633 723.417 403.563C728.299 398.484 736.375 398.33 741.457 403.205C765.293 426.097 778.422 456.887 778.422 489.905C778.422 556.213 724.41 610.162 658.02 610.162V610.162Z" fill="#4A7FFE"/>
<path fill-rule="evenodd" clip-rule="evenodd" d="M252.216 749.412H442.585C449.645 749.412 455.371 755.121 455.371 762.165C455.371 769.205 449.645 774.914 442.585 774.914H252.216C245.155 774.914 239.43 769.205 239.43 762.165C239.43 755.121 245.155 749.412 252.216 749.412V749.412Z" fill="#E2E2E8"/>
<path fill-rule="evenodd" clip-rule="evenodd" d="M255.057 794.744H428.379C435.439 794.744 441.165 800.453 441.165 807.494C441.165 814.537 435.439 820.243 428.379 820.243H255.057C247.997 820.243 242.271 814.537 242.271 807.494C242.271 800.453 247.997 794.744 255.057 794.744V794.744Z" fill="#E2E2E8"/>
<rect x="854.576" y="748" width="207.417" height="70.8313" rx="4.5" fill="#E2E2E8"/>
<rect x="238" y="1152" width="116.872" height="236.963" rx="4.5" fill="#E2E2E8"/>
<path fill-rule="evenodd" clip-rule="evenodd" d="M298.627 1175.56C310.596 1175.56 320.299 1165.88 320.299 1153.95C320.299 1142.01 310.596 1132.34 298.627 1132.34C286.658 1132.34 276.955 1142.01 276.955 1153.95C276.955 1165.88 286.658 1175.56 298.627 1175.56Z" fill="#57586E"/>
<rect x="382.146" y="1241.35" width="116.872" height="151.501" rx="4.5" fill="#E2E2E8"/>
<path fill-rule="evenodd" clip-rule="evenodd" d="M438.672 1011.73C450.641 1011.73 460.344 1002.17 460.344 990.366C460.344 978.566 450.641 969 438.672 969C426.703 969 417 978.566 417 990.366C417 1002.17 426.703 1011.73 438.672 1011.73Z" fill="#175CFF"/>
<path fill-rule="evenodd" clip-rule="evenodd" d="M438.883 1261.02C450.852 1261.02 460.555 1251.34 460.555 1239.41C460.555 1227.47 450.852 1217.8 438.883 1217.8C426.914 1217.8 417.211 1227.47 417.211 1239.41C417.211 1251.34 426.914 1261.02 438.883 1261.02Z" fill="#57586E"/>
<rect x="518.488" y="1206.39" width="116.872" height="182.578" rx="4.5" fill="#E2E2E8"/>
<path fill-rule="evenodd" clip-rule="evenodd" d="M578.672 1089.42C590.641 1089.42 600.344 1079.86 600.344 1068.06C600.344 1056.26 590.641 1046.69 578.672 1046.69C566.703 1046.69 557 1056.26 557 1068.06C557 1079.86 566.703 1089.42 578.672 1089.42Z" fill="#175CFF"/>
<path fill-rule="evenodd" clip-rule="evenodd" d="M579.115 1226.06C591.084 1226.06 600.787 1216.38 600.787 1204.45C600.787 1192.51 591.084 1182.84 579.115 1182.84C567.146 1182.84 557.443 1192.51 557.443 1204.45C557.443 1216.38 567.146 1226.06 579.115 1226.06Z" fill="#57586E"/>
<rect x="658.735" y="1299.62" width="116.872" height="89.3468" rx="4.5" fill="#E2E2E8"/>
<path fill-rule="evenodd" clip-rule="evenodd" d="M719.363 1323.17C731.332 1323.17 741.035 1313.5 741.035 1301.56C741.035 1289.63 731.332 1279.95 719.363 1279.95C707.394 1279.95 697.691 1289.63 697.691 1301.56C697.691 1313.5 707.394 1323.17 719.363 1323.17Z" fill="#57586E"/>
<rect x="798.982" y="1233.58" width="116.872" height="159.27" rx="4.5" fill="#E2E2E8"/>
<path fill-rule="evenodd" clip-rule="evenodd" d="M855.23 1015.62C867.2 1015.62 876.902 1006.05 876.902 994.251C876.902 982.451 867.2 972.886 855.23 972.886C843.261 972.886 833.559 982.451 833.559 994.251C833.559 1006.05 843.261 1015.62 855.23 1015.62Z" fill="#175CFF"/>
<path fill-rule="evenodd" clip-rule="evenodd" d="M859.609 1253.25C871.578 1253.25 881.281 1243.57 881.281 1231.64C881.281 1219.7 871.578 1210.03 859.609 1210.03C847.64 1210.03 837.938 1219.7 837.938 1231.64C837.938 1243.57 847.64 1253.25 859.609 1253.25Z" fill="#57586E"/>
<rect x="939.223" y="1152" width="116.872" height="236.963" rx="4.5" fill="#E2E2E8"/>
<path fill-rule="evenodd" clip-rule="evenodd" d="M995.471 1089.42C1007.44 1089.42 1017.14 1079.86 1017.14 1068.06C1017.14 1056.26 1007.44 1046.69 995.471 1046.69C983.502 1046.69 973.799 1056.26 973.799 1068.06C973.799 1079.86 983.502 1089.42 995.471 1089.42Z" fill="#175CFF"/>
<path fill-rule="evenodd" clip-rule="evenodd" d="M999.85 1175.56C1011.82 1175.56 1021.52 1165.88 1021.52 1153.95C1021.52 1142.01 1011.82 1132.34 999.85 1132.34C987.881 1132.34 978.178 1142.01 978.178 1153.95C978.178 1165.88 987.881 1175.56 999.85 1175.56Z" fill="#57586E"/>
</g>
<defs>
<filter id="filter0_d" x="0" y="0" width="1264" height="1655" filterUnits="userSpaceOnUse" color-interpolation-filters="sRGB">
<feFlood flood-opacity="0" result="BackgroundImageFix"/>
<feColorMatrix in="SourceAlpha" type="matrix" values="0 0 0 0 0 0 0 0 0 0 0 0 0 0 0 0 0 0 127 0"/>
<feOffset dx="-18" dy="22"/>
<feGaussianBlur stdDeviation="60"/>
<feColorMatrix type="matrix" values="0 0 0 0 0 0 0 0 0 0 0 0 0 0 0 0 0 0 0.1 0"/>
<feBlend mode="normal" in2="BackgroundImageFix" result="effect1_dropShadow"/>
<feBlend mode="normal" in="SourceGraphic" in2="effect1_dropShadow" result="shape"/>
</filter>
</defs>
</svg>
